<?xml version="1.0"?>
<svg width="64" height="64" xmlns="http://www.w3.org/2000/svg" xmlns:svg="http://www.w3.org/2000/svg" enable-background="new 0 0 64 64" version="1.1" xml:space="preserve">
 <g class="layer">
  <title>Layer 1</title>
  <g id="svg_1">
   <path d="m55.74,13.75l-4.37,-4.37c-0.45,-0.45 -1.05,-0.67 -1.64,-0.67c-0.59,0 -1.18,0.22 -1.63,0.67l-3.5,3.49l7.64,7.62l3.5,-3.48c0.9,-0.9 0.9,-2.36 0,-3.26z" fill="#ffffff" id="svg_2"/>
   <polygon fill="#ffffff" id="svg_3" points="21.922000885009766,35.509636268019676 29.562000274658203,43.136635169386864 50.606998443603516,22.13063655793667 42.96699905395508,14.503636702895164 "/>
   <polygon fill="#ffffff" id="svg_4" points="20.273000717163086,37.1416362375021 18.642000198364258,46.393635138869286 27.913000106811523,44.76763568818569 "/>
   <path d="m41.39,50.51l-28.8,0l0,-28.8l20.33,0l5.01,-5l-27.11,0c-1.78,0 -3.23,1.45 -3.23,3.23l0,32.34c0,1.78 1.45,3.23 3.23,3.23l32.34,0c1.78,0 3.23,-1.45 3.23,-3.23l0,-23.12l-5,4.99l0,16.36z" fill="#ffffff" id="svg_5"/>
  </g>
 </g>
</svg>